<?xml version="1.0" encoding="UTF-8"?>
<!DOCTYPE svg PUBLIC "-//W3C//DTD SVG 1.1//EN" "http://www.w3.org/Graphics/SVG/1.1/DTD/svg11.dtd">
<!-- Creator: CorelDRAW -->
<svg xmlns="http://www.w3.org/2000/svg" xml:space="preserve" width="500px" height="600px" version="1.1" style="shape-rendering:geometricPrecision; text-rendering:geometricPrecision; image-rendering:optimizeQuality; fill-rule:evenodd; clip-rule:evenodd"
viewBox="0 0 36.29 43.56"
 xmlns:xlink="http://www.w3.org/1999/xlink"
 xmlns:xodm="http://www.corel.com/coreldraw/odm/2003">
 <defs>
  <style type="text/css">
   <![CDATA[
    .fil0 {fill:#EF8519}
   ]]>
  </style>
 </defs>
 <g id="Layer_x0020_1">
  <metadata id="CorelCorpID_0Corel-Layer"/>
  <path class="fil0" d="M31.61 40.96l-12.24 -21.2 1.6 -2.77 15.32 26.57 -36.29 0 23.59 -40.87 -10.86 0 2.79 4.85c0.11,-0.08 1.33,-2.27 1.58,-2.71l3.09 0 -4.7 8.1 -7.42 -12.93 20.17 0 -23.63 40.94 27 0.02zm-23.14 -2.41l19.34 0 -6.89 -11.89 -3.94 6.89 3.11 0 0.88 -1.49 2.17 3.8 -9.99 0c2,-3.77 4.41,-7.66 6.57,-11.37l-1.54 -2.66 -9.71 16.72z"/>
 </g>
</svg>
