<?xml version="1.0" encoding="UTF-8"?>
<!DOCTYPE svg PUBLIC "-//W3C//DTD SVG 1.1//EN" "http://www.w3.org/Graphics/SVG/1.1/DTD/svg11.dtd">
<!-- Creator: CorelDRAW -->
<svg xmlns="http://www.w3.org/2000/svg" xml:space="preserve" width="32px" height="38px" version="1.1" style="shape-rendering:geometricPrecision; text-rendering:geometricPrecision; image-rendering:optimizeQuality; fill-rule:evenodd; clip-rule:evenodd"
viewBox="0 0 2.32 2.79"
 xmlns:xlink="http://www.w3.org/1999/xlink"
 xmlns:xodm="http://www.corel.com/coreldraw/odm/2003">
 <defs>
  <style type="text/css">
   <![CDATA[
    .fil0 {fill:#EF8519}
   ]]>
  </style>
 </defs>
 <g id="Layer_x0020_1">
  <metadata id="CorelCorpID_0Corel-Layer"/>
  <path class="fil0" d="M2.02 2.62l-0.78 -1.36 0.1 -0.17 0.98 1.7 -2.32 0 1.51 -2.62 -0.7 0 0.18 0.31c0.01,0 0.09,-0.14 0.1,-0.17l0.2 0 -0.3 0.52 -0.47 -0.83 1.29 0 -1.51 2.62 1.72 0zm-1.48 -0.15l1.24 0 -0.44 -0.76 -0.25 0.44 0.2 0 0.05 -0.1 0.14 0.25 -0.64 0c0.13,-0.25 0.28,-0.5 0.42,-0.73l-0.1 -0.17 -0.62 1.07z"/>
 </g>
</svg>
